# Blender v3.2.2 OBJ File: 'amor.blend'
# www.blender.org
mtllib leg1.mtl
v 0.022331 0.296777 0.097567
v 0.022331 0.340658 0.091656
v 0.022331 0.296777 -0.148016
v 0.022331 0.340658 -0.144226
v 0.249509 0.296777 0.097567
v 0.242069 0.340658 0.091656
v 0.249509 0.296777 -0.148016
v 0.242069 0.340658 -0.144226
v 0.022331 0.331158 0.097567
v 0.022331 0.331158 -0.148016
v 0.249509 0.331158 -0.148016
v 0.249509 0.331158 0.097567
v 0.022331 0.393930 0.091656
v 0.022331 0.393930 -0.144226
v 0.242069 0.393930 -0.144226
v 0.242069 0.393930 0.091656
v 0.080344 0.504469 0.059705
v 0.016383 0.504469 0.059705
v 0.080344 0.575596 0.059705
v 0.016383 0.575596 0.059705
v 0.016383 0.525949 -0.141540
v 0.184056 0.525949 0.083768
v 0.016383 0.554116 -0.141540
v 0.184056 0.554116 0.083768
v 0.242525 0.525949 -0.141540
v 0.242525 0.525949 0.083768
v 0.242525 0.554116 -0.141540
v 0.242525 0.554116 0.083768
v 0.080344 0.523024 0.087128
v 0.080344 0.523024 0.059705
v 0.080344 0.557042 0.087128
v 0.080344 0.557042 0.059705
v 0.021017 0.523024 0.087128
v 0.021017 0.523024 0.059705
v 0.021017 0.557042 0.087128
v 0.021017 0.557042 0.059705
v 0.080344 0.504469 0.084115
v 0.080344 0.511144 0.090871
v 0.184056 0.511144 0.090871
v 0.147706 0.504469 0.084115
v 0.184056 0.510814 0.088773
v 0.080344 0.568921 0.090871
v 0.080344 0.575596 0.084115
v 0.147706 0.575596 0.084115
v 0.184056 0.568921 0.090871
v 0.184056 0.569251 0.088773
vt 0.424765 0.000000
vt 0.625000 0.000000
vt 0.625000 0.250000
vt 0.424765 0.250000
vt 0.625000 0.500000
vt 0.424765 0.500000
vt 0.625000 0.750000
vt 0.424765 0.750000
vt 0.625000 1.000000
vt 0.424765 1.000000
vt 0.125000 0.500000
vt 0.375000 0.500000
vt 0.375000 0.750000
vt 0.125000 0.750000
vt 0.625000 0.500000
vt 0.625000 0.750000
vt 0.375000 1.000000
vt 0.375000 0.250000
vt 0.375000 0.000000
vt 0.875000 0.500000
vt 0.875000 0.750000
vt 0.625000 0.000000
vt 0.625000 0.250000
vt 0.625000 1.000000
vt 0.875000 0.750000
vt 0.625000 0.750000
vt 0.625000 0.750000
vt 0.875000 0.750000
vt 0.625000 0.500000
vt 0.625000 0.695802
vt 0.625000 0.750000
vt 0.625000 0.750000
vt 0.625000 0.500000
vt 0.625000 0.500000
vt 0.625000 0.500000
vt 0.625000 0.695802
vt 0.875000 0.695802
vt 0.875000 0.500000
vt 0.625000 0.750000
vt 0.625000 0.750000
vt 0.875000 0.500000
vt 0.625000 0.750000
vt 0.625000 0.750000
vt 0.875000 0.695802
vt 0.625000 0.500000
vt 0.625000 0.500000
vt 0.875000 0.500000
vt 0.875000 0.500000
vt 0.875000 0.750000
vt 0.875000 0.750000
vt 0.875000 0.500000
vt 0.875000 0.750000
vt 0.875000 0.750000
vt 0.875000 0.500000
vt 0.712623 0.750000
vn -1.0000 0.0000 0.0000
vn 0.0000 0.3705 -0.9288
vn 0.7873 0.6166 0.0000
vn 0.0000 0.5283 0.8490
vn 0.0000 -1.0000 0.0000
vn 1.0000 0.0000 0.0000
vn 0.0000 0.0000 1.0000
vn 0.0000 0.0000 -1.0000
vn 0.0000 1.0000 0.0000
vn 0.1520 0.9692 -0.1939
vn 0.0000 -1.0000 -0.0001
vn 0.1520 -0.9692 -0.1939
vn 0.1508 -0.9766 0.1536
vn 0.1508 0.9766 0.1536
vn 0.0000 -0.7114 0.7028
vn 0.0000 0.7114 0.7028
usemtl None
s off
f 9/1/1 2/2/1 4/3/1 10/4/1
f 10/4/2 4/3/2 8/5/2 11/6/2
f 11/6/3 8/5/3 6/7/3 12/8/3
f 12/8/4 6/7/4 2/9/4 9/10/4
f 3/11/5 7/12/5 5/13/5 1/14/5
f 6/7/6 8/5/6 15/15/6 16/16/6
f 5/13/7 12/8/7 9/10/7 1/17/7
f 7/12/6 11/6/6 12/8/6 5/13/6
f 3/18/8 10/4/8 11/6/8 7/12/8
f 1/19/1 9/1/1 10/4/1 3/18/1
f 15/15/9 14/20/9 13/21/9 16/16/9
f 4/3/1 2/2/1 13/22/1 14/23/1
f 2/9/7 6/7/7 16/16/7 13/24/7
f 8/5/8 4/3/8 14/23/8 15/15/8
f 38/25/7 39/26/7 45/27/7 42/28/7
f 20/29/10 44/30/10 46/31/10 24/32/10 23/33/10
f 18/34/1 20/29/1 23/33/1 21/35/1
f 18/34/11 40/36/11 37/37/11 17/38/11
f 41/39/12 40/36/12 18/34/12 21/35/12 22/40/12
f 18/34/7 17/38/7 19/41/7 20/29/7
f 24/32/7 22/40/7 26/42/7 28/43/7
f 46/31/6 45/27/6 39/26/6 41/39/6 22/40/6 24/32/6
f 20/29/9 19/41/9 43/44/9 44/30/9
f 26/42/6 25/45/6 27/46/6 28/43/6
f 23/33/9 24/32/9 28/43/9 27/46/9
f 21/35/8 23/33/8 27/46/8 25/45/8
f 22/40/5 21/35/5 25/45/5 26/42/5
f 30/47/6 32/48/6 31/49/6 29/50/6
f 34/51/1 33/52/1 35/53/1 36/54/1
f 29/50/7 31/49/7 35/53/7 33/52/7
f 30/47/5 29/50/5 33/52/5 34/51/5
f 32/48/8 30/47/8 34/51/8 36/54/8
f 31/49/9 32/48/9 36/54/9 35/53/9
f 39/26/13 40/55/13 41/39/13
f 44/30/14 45/27/14 46/31/14
f 39/26/15 38/25/15 37/37/15 40/36/15
f 44/30/16 43/44/16 42/28/16 45/27/16
f 17/38/1 37/37/1 38/25/1 42/28/1 43/44/1 19/41/1
