# Blender v3.2.2 OBJ File: 'amor.blend'
# www.blender.org
mtllib ar1m.mtl
v 0.450316 0.840562 -0.014061
v 0.450316 0.963004 -0.149348
v 0.450316 1.008702 -0.149348
v 0.450316 0.963004 0.088496
v 0.450316 1.008702 0.088496
v 0.450469 1.131144 -0.046791
v 0.450469 1.131144 -0.014061
v 0.450316 0.985853 0.088496
v 0.450316 0.985853 -0.149348
v 0.487092 0.985853 -0.014061
v 0.487092 0.985853 -0.046791
v 0.450316 0.840562 -0.046791
v 0.450316 0.778018 -0.014061
v 0.450316 0.778018 -0.046791
v 0.487092 0.977975 -0.014061
v 0.487092 0.963004 -0.029215
v 0.487092 0.963004 -0.031637
v 0.487092 0.977975 -0.046791
v 0.487092 0.993731 -0.046791
v 0.487092 1.008702 -0.031637
v 0.487092 1.008702 -0.029215
v 0.487092 0.993731 -0.014061
v 0.450316 1.008702 -0.061945
v 0.450316 1.023674 -0.046791
v 0.450316 1.008702 -0.031637
v 0.450316 1.023674 -0.014061
v 0.450316 1.008702 0.001093
v 0.450316 1.008702 -0.029215
v 0.450316 0.963004 0.001093
v 0.450316 0.948032 -0.014061
v 0.450316 0.963004 -0.029215
v 0.450316 0.948032 -0.046791
v 0.450316 0.963004 -0.061945
v 0.450316 0.963004 -0.031637
v 0.475175 0.974210 0.075886
v 0.460492 0.963004 0.088496
v 0.475175 0.997793 0.075886
v 0.460491 1.008702 0.088496
v 0.475175 0.974210 -0.136738
v 0.460492 0.963004 -0.149348
v 0.475175 0.997793 -0.136738
v 0.460491 1.008702 -0.149348
v 0.474884 0.985853 0.075842
v 0.460494 0.985853 0.088496
v 0.474787 1.118630 -0.035793
v 0.460490 1.131144 -0.046791
v 0.474884 0.985853 -0.136694
v 0.460494 0.985853 -0.149348
v 0.474787 1.118630 -0.025059
v 0.460490 1.131144 -0.014061
v 0.460499 0.840562 -0.014061
v 0.473165 0.840562 -0.025484
v 0.473165 0.840562 -0.035368
v 0.460499 0.840562 -0.046791
v 0.473165 0.790636 -0.025536
v 0.460503 0.778018 -0.014061
v 0.473165 0.790636 -0.035316
v 0.460503 0.778018 -0.046791
v 0.487092 0.959068 -0.025232
v 0.474423 0.948032 -0.014061
v 0.474420 0.963004 0.001093
v 0.487092 0.974015 -0.010052
v 0.487092 0.974015 -0.050800
v 0.474420 0.963004 -0.061945
v 0.474423 0.948032 -0.046791
v 0.487092 0.959068 -0.035620
v 0.487092 1.012967 -0.035953
v 0.474416 1.023674 -0.046791
v 0.474416 1.008702 -0.061945
v 0.487092 0.997996 -0.051108
v 0.487092 0.997996 -0.009744
v 0.474416 1.008702 0.001093
v 0.474416 1.023674 -0.014061
v 0.487092 1.012967 -0.024899
v 0.308330 1.152269 0.061028
v 0.398277 1.164187 0.057262
v 0.312339 1.152269 0.057067
v 0.312959 1.118005 0.102633
v 0.312959 1.118005 0.062245
v 0.402906 1.129922 0.058479
v 0.402862 1.130213 0.102633
v 0.316968 1.118005 0.058284
v 0.308330 1.108353 0.060526
v 0.398277 1.120270 0.056761
v 0.312339 1.108353 0.056566
v 0.312959 1.074089 0.102131
v 0.312959 1.074089 0.061743
v 0.402906 1.086006 0.057978
v 0.402862 1.086297 0.102131
v 0.316968 1.074089 0.057783
v 0.308330 1.066238 0.060526
v 0.398277 1.078156 0.056761
v 0.312339 1.066238 0.056566
v 0.312959 1.031974 0.102131
v 0.312959 1.031974 0.061743
v 0.402906 1.043891 0.057978
v 0.402862 1.044182 0.102131
v 0.316968 1.031974 0.057783
v 0.308330 1.025626 0.060526
v 0.398277 1.037543 0.056761
v 0.312339 1.025626 0.056566
v 0.312959 0.991361 0.102131
v 0.312959 0.991361 0.061743
v 0.402906 1.003278 0.057978
v 0.402862 1.003569 0.102131
v 0.316968 0.991361 0.057783
v 0.308330 1.025626 0.064465
v 0.398255 1.037688 0.062582
v 0.355308 1.031584 0.056663
v 0.310334 1.025626 0.058546
v 0.312959 0.991361 0.065682
v 0.402884 1.003423 0.063800
v 0.359937 0.997319 0.057880
v 0.314963 0.991361 0.059763
v 0.357911 0.997465 0.102131
v 0.314653 1.008493 0.057174
v 0.400592 1.020410 0.057369
v 0.310644 1.008493 0.101523
v 0.310644 1.008493 0.061135
v 0.400548 1.020701 0.101523
v 0.355596 1.014597 0.101523
v 0.400570 1.020556 0.063191
v 0.312649 1.008493 0.059155
v 0.310644 1.008493 0.065074
v 0.357623 1.014452 0.057272
v 0.308330 0.983481 0.060526
v 0.398277 0.995398 0.056761
v 0.312339 0.983481 0.056566
v 0.312959 0.949216 0.102131
v 0.312959 0.949216 0.061743
v 0.402906 0.961133 0.057978
v 0.402862 0.961424 0.102131
v 0.316968 0.949216 0.057783
v 0.308330 0.983481 0.064465
v 0.398255 0.995543 0.062582
v 0.355308 0.989439 0.056663
v 0.310334 0.983481 0.058546
v 0.312959 0.949216 0.065682
v 0.402884 0.961278 0.063800
v 0.359937 0.955174 0.057880
v 0.314963 0.949216 0.059763
v 0.357911 0.955320 0.102131
v 0.314653 0.966348 0.057174
v 0.400592 0.978265 0.057369
v 0.310644 0.966348 0.101523
v 0.310644 0.966348 0.061135
v 0.400548 0.978556 0.101523
v 0.355596 0.972452 0.101523
v 0.400570 0.978411 0.063191
v 0.312649 0.966348 0.059155
v 0.310644 0.966348 0.065074
v 0.357623 0.972307 0.057272
v 0.309127 1.146371 0.101625
v 0.308330 1.152269 0.095388
v 0.398239 1.164438 0.095388
v 0.399030 1.158580 0.101625
v 0.308330 1.108353 0.094887
v 0.309127 1.102455 0.101124
v 0.399030 1.114663 0.101124
v 0.398239 1.120522 0.094887
v 0.308330 1.066238 0.094887
v 0.309127 1.060340 0.101124
v 0.399030 1.072548 0.101124
v 0.398239 1.078407 0.094887
v 0.308330 1.025626 0.094887
v 0.309127 1.019728 0.101124
v 0.399030 1.031936 0.101124
v 0.398237 1.037811 0.094887
v 0.354078 1.025832 0.101124
v 0.353289 1.031674 0.094887
v 0.308330 0.983481 0.094887
v 0.309127 0.977582 0.101124
v 0.399030 0.989790 0.101124
v 0.398237 0.995666 0.094887
v 0.354078 0.983686 0.101124
v 0.353289 0.989529 0.094887
vt 0.750000 0.623727
vt 0.750000 0.626273
vt 0.750000 0.642201
vt 0.750000 0.642201
vt 0.750000 0.607799
vt 0.750000 0.607799
vt 0.750000 0.658130
vt 0.750000 0.750000
vt 0.805660 0.750000
vt 0.831914 0.658130
vt 0.435237 0.146415
vt 0.436267 0.236723
vt 0.500000 0.236700
vt 0.500000 0.142201
vt 0.456904 0.142201
vt 0.565355 0.236724
vt 0.566429 0.146739
vt 0.543096 0.142201
vt 0.250000 0.642201
vt 0.250000 0.607799
vt 0.194272 0.607799
vt 0.194272 0.642201
vt 0.168073 0.658130
vt 0.194330 0.750000
vt 0.250000 0.750000
vt 0.250000 0.658130
vt 0.194330 0.500000
vt 0.168073 0.591870
vt 0.250000 0.591870
vt 0.250000 0.500000
vt 0.750000 0.500000
vt 0.750000 0.591870
vt 0.831914 0.591870
vt 0.805660 0.500000
vt 0.625000 0.126273
vt 0.625000 0.123727
vt 0.543096 0.107799
vt 0.500000 0.107799
vt 0.831916 0.642201
vt 0.805192 0.642201
vt 0.875000 0.626273
vt 0.875000 0.623727
vt 0.875000 0.619190
vt 0.875000 0.619359
vt 0.875000 0.630641
vt 0.875000 0.630810
vt 0.375000 0.875000
vt 0.375000 0.930670
vt 0.500000 0.930677
vt 0.500000 0.875000
vt 0.500000 0.319323
vt 0.500000 0.375000
vt 0.625000 0.375000
vt 0.625000 0.319340
vt 0.194291 0.642201
vt 0.250000 0.642201
vt 0.625000 0.930660
vt 0.625000 0.875000
vt 0.250000 0.626273
vt 0.250000 0.623727
vt 0.250000 0.607799
vt 0.250000 0.607799
vt 0.250000 0.642201
vt 0.125000 0.623727
vt 0.125000 0.626273
vt 0.125000 0.630460
vt 0.125000 0.630195
vt 0.125000 0.619805
vt 0.125000 0.619540
vt 0.805192 0.607799
vt 0.500000 0.013300
vt 0.566429 0.103261
vt 0.565355 0.013276
vt 0.456904 0.107799
vt 0.375000 0.123727
vt 0.375000 0.126273
vt 0.375000 0.319330
vt 0.375000 0.375000
vt 0.125000 0.642201
vt 0.125000 0.642201
vt 0.194291 0.607799
vt 0.168063 0.642201
vt 0.168063 0.607799
vt 0.831916 0.607799
vt 0.750000 0.607799
vt 0.750000 0.642201
vt 0.750000 0.642201
vt 0.250000 0.642201
vt 0.250000 0.607799
vt 0.250000 0.607799
vt 0.875000 0.642201
vt 0.875000 0.642201
vt 0.125000 0.607799
vt 0.125000 0.607799
vt 0.875000 0.607799
vt 0.875000 0.607799
vt 0.125000 0.630140
vt 0.125000 0.619860
vt 0.500000 1.000000
vt 0.565317 1.000000
vt 0.436305 1.000000
vt 0.125000 0.642201
vt 0.125000 0.658130
vt 0.125000 0.591870
vt 0.125000 0.607799
vt 0.875000 0.607799
vt 0.875000 0.607799
vt 0.875000 0.642201
vt 0.875000 0.642201
vt 0.125000 0.736746
vt 0.125000 0.513254
vt 0.875000 0.513254
vt 0.875000 0.591870
vt 0.875000 0.736746
vt 0.875000 0.658130
vt 0.436267 0.013276
vt 0.435237 0.103585
vt 0.500000 0.142201
vt 0.500000 0.142201
vt 0.500000 0.236700
vt 0.500000 0.236700
vt 0.435237 0.146415
vt 0.436267 0.236723
vt 0.456904 0.142201
vt 0.436267 0.236723
vt 0.435237 0.146415
vt 0.456904 0.142201
vt 0.493568 0.142201
vt 0.491299 0.236703
vt 0.456904 0.142201
vt 0.456904 0.142201
vt 0.500000 0.142201
vt 0.500000 0.142201
vt 0.493568 0.142201
vt 0.500000 0.236700
vt 0.500000 0.236700
vt 0.435237 0.146415
vt 0.436267 0.236723
vt 0.436267 0.236723
vt 0.435237 0.146415
vt 0.491299 0.236703
vt 0.456904 0.142201
vt 0.456904 0.142201
vt 0.500000 0.142201
vt 0.500000 0.142201
vt 0.493568 0.142201
vt 0.500000 0.236700
vt 0.500000 0.236700
vt 0.435237 0.146415
vt 0.436267 0.236723
vt 0.436267 0.236723
vt 0.435237 0.146415
vt 0.491299 0.236703
vt 0.478452 0.142201
vt 0.478452 0.142201
vt 0.500000 0.142201
vt 0.500000 0.142201
vt 0.496437 0.142201
vt 0.500000 0.189451
vt 0.500000 0.189451
vt 0.435237 0.146415
vt 0.435752 0.191569
vt 0.436267 0.236723
vt 0.468134 0.236712
vt 0.500000 0.236700
vt 0.500000 0.189451
vt 0.500000 0.142201
vt 0.478452 0.142201
vt 0.456904 0.142201
vt 0.446071 0.144308
vt 0.435752 0.191569
vt 0.435237 0.146415
vt 0.446071 0.144308
vt 0.456904 0.142201
vt 0.468134 0.236712
vt 0.436267 0.236723
vt 0.500000 0.236700
vt 0.500000 0.236700
vt 0.468134 0.236712
vt 0.494989 0.236702
vt 0.478452 0.142201
vt 0.478452 0.142201
vt 0.500000 0.142201
vt 0.500000 0.142201
vt 0.496437 0.142201
vt 0.436267 0.236723
vt 0.435237 0.146415
vt 0.446071 0.144308
vt 0.456904 0.142201
vt 0.492321 0.189456
vt 0.435752 0.191569
vt 0.500000 0.189451
vt 0.500000 0.189451
vt 0.435237 0.146415
vt 0.435752 0.191569
vt 0.436267 0.236723
vt 0.468134 0.236712
vt 0.500000 0.236700
vt 0.500000 0.189451
vt 0.500000 0.142201
vt 0.478452 0.142201
vt 0.456904 0.142201
vt 0.446071 0.144308
vt 0.435752 0.191569
vt 0.435237 0.146415
vt 0.446071 0.144308
vt 0.456904 0.142201
vt 0.468134 0.236712
vt 0.436267 0.236723
vt 0.500000 0.236700
vt 0.500000 0.236700
vt 0.468134 0.236712
vt 0.494989 0.236702
vt 0.436267 0.236723
vt 0.435237 0.146415
vt 0.446071 0.144308
vt 0.456904 0.142201
vt 0.492321 0.189456
vt 0.435752 0.191569
vn -1.0000 0.0013 0.0000
vn 0.0000 1.0000 0.0000
vn 0.9904 0.0352 -0.1338
vn 0.9903 -0.0360 -0.1339
vn 0.0000 -1.0000 0.0000
vn 1.0000 0.0000 0.0000
vn 0.0000 0.0000 1.0000
vn 0.9936 0.1129 0.0000
vn 0.0000 0.0000 -1.0000
vn -1.0000 -0.0000 0.0000
vn 0.9934 -0.1143 0.0000
vn 0.9903 -0.0360 0.1339
vn 0.0000 -0.7114 0.7028
vn 0.0000 -0.7114 -0.7028
vn 0.0000 0.7114 -0.7028
vn 0.0000 0.7114 0.7028
vn 0.6545 -0.0064 0.7560
vn 0.6545 0.0065 -0.7560
vn 0.6545 0.0065 0.7560
vn 0.6545 -0.0064 -0.7560
vn 0.6586 0.7525 0.0000
vn 0.7059 -0.7083 0.0000
vn 0.6707 -0.0003 0.7417
vn 0.6707 -0.0003 -0.7417
vn 0.7779 -0.4474 0.4413
vn 0.7779 -0.4474 -0.4413
vn 0.7687 0.4550 -0.4495
vn 0.7687 0.4550 0.4495
vn 0.6835 -0.0850 -0.7249
vn 0.6835 -0.0850 0.7249
vn 0.6791 -0.7270 0.1021
vn 0.6791 -0.7269 -0.1021
vn 0.6692 0.0829 0.7384
vn 0.6692 0.0829 -0.7384
vn 0.6685 0.7369 -0.1007
vn 0.6685 0.7369 0.1007
vn 0.9904 0.0352 0.1338
vn -0.0047 0.0349 0.9994
vn 0.1332 -0.9910 0.0093
vn 0.0071 -0.0345 -0.9994
vn -0.1330 0.9911 -0.0102
vn -0.6978 -0.1194 -0.7063
vn -0.9910 -0.1339 -0.0000
vn 0.9910 0.1339 0.0001
vn 0.1338 -0.9910 0.0093
vn 0.9910 0.1339 0.0004
vn -0.1337 0.9910 -0.0099
vn -0.0973 0.7181 0.6891
vn -0.0979 0.7191 0.6879
vn -0.0971 0.7186 0.6887
usemtl None
s off
f 25/1/1 28/2/1 26/3/1 7/4/1 6/5/1 24/6/1
f 27/7/2 5/8/2 38/9/2 72/10/2
f 63/11/3 39/12/3 47/13/3 11/14/3 18/15/3
f 11/14/4 47/13/4 41/16/4 70/17/4 19/18/4
f 13/19/5 14/20/5 58/21/5 56/22/5
f 61/23/5 36/24/5 4/25/5 29/26/5
f 40/27/5 64/28/5 33/29/5 2/30/5
f 3/31/2 23/32/2 69/33/2 42/34/2
f 20/35/6 21/36/6 22/37/6 10/38/6 11/14/6 19/18/6
f 26/3/7 73/39/7 50/40/7 7/4/7
f 21/41/8 20/42/8 67/43/8 45/44/8 49/45/8 74/46/8
f 4/47/7 36/48/7 44/49/7 8/50/7
f 48/51/9 9/52/9 3/53/9 42/54/9
f 51/55/7 1/56/7 13/19/7 56/22/7
f 8/50/7 44/49/7 38/57/7 5/58/7
f 31/59/10 34/60/10 32/61/10 12/62/10 1/56/10 30/63/10
f 17/64/11 16/65/11 59/66/11 52/67/11 53/68/11 66/69/11
f 50/40/2 46/70/2 6/5/2 7/4/2
f 43/71/12 10/38/12 22/37/12 71/72/12 37/73/12
f 11/14/6 10/38/6 15/74/6 16/75/6 17/76/6 18/15/6
f 40/77/9 2/78/9 9/52/9 48/51/9
f 59/66/6 16/65/6 15/79/6 62/80/6
f 12/62/9 54/81/9 58/21/9 14/20/9
f 60/82/7 30/63/7 1/56/7 51/55/7
f 32/61/9 65/83/9 54/81/9 12/62/9
f 1/56/10 12/62/10 14/20/10 13/19/10
f 29/26/13 30/63/13 60/82/13 61/23/13
f 64/28/14 65/83/14 32/61/14 33/29/14
f 23/32/15 24/6/15 68/84/15 69/33/15
f 72/10/16 73/39/16 26/3/16 27/7/16
f 23/85/10 25/1/10 24/6/10
f 26/3/10 28/86/10 27/87/10
f 29/88/10 31/59/10 30/63/10
f 32/61/10 34/89/10 33/90/10
f 71/91/6 22/92/6 21/41/6 74/46/6
f 63/93/6 18/94/6 17/64/6 66/69/6
f 67/43/6 20/42/6 19/95/6 70/96/6
f 53/68/6 52/67/6 55/97/6 57/98/6
f 68/84/9 24/6/9 6/5/9 46/70/9
f 44/49/17 43/99/17 37/100/17 38/57/17
f 48/51/18 47/13/18 39/12/18 40/77/18
f 36/48/19 35/101/19 43/99/19 44/49/19
f 42/54/20 41/16/20 47/13/20 48/51/20
f 50/40/21 49/45/21 45/44/21 46/70/21
f 58/21/22 57/98/22 55/97/22 56/22/22
f 52/67/23 51/55/23 56/22/23 55/97/23
f 54/81/24 53/68/24 57/98/24 58/21/24
f 60/82/25 59/102/25 62/103/25 61/23/25
f 64/28/26 63/104/26 66/105/26 65/83/26
f 68/106/27 67/43/27 70/96/27 69/107/27
f 72/108/28 71/91/28 74/46/28 73/109/28
f 65/83/29 66/69/29 53/68/29 54/81/29
f 51/55/30 52/67/30 59/66/30 60/82/30
f 61/23/31 62/103/31 35/110/31 36/24/31
f 40/27/32 39/111/32 63/104/32 64/28/32
f 73/39/33 74/46/33 49/45/33 50/40/33
f 46/70/34 45/44/34 67/43/34 68/84/34
f 41/112/35 42/34/35 69/33/35 70/113/35
f 38/9/36 37/114/36 71/115/36 72/10/36
f 35/116/37 62/117/37 15/74/37 10/38/37 43/71/37
f 4/25/10 8/50/10 5/8/10 27/87/10 28/2/10 25/1/10 23/32/10 3/53/10 9/52/10 2/30/10 33/90/10 34/60/10 31/59/10 29/26/10
f 153/118/38 78/119/38 81/120/38 156/121/38
f 82/122/39 80/123/39 81/120/39 78/119/39 79/124/39
f 76/125/40 80/123/40 82/122/40 77/126/40
f 77/126/41 75/127/41 154/128/41 155/129/41 76/125/41
f 77/126/42 82/122/42 79/124/42 75/127/42
f 83/130/43 87/131/43 86/132/43 158/133/43 157/134/43
f 155/129/44 156/121/44 81/120/44 80/123/44 76/125/44
f 158/133/38 86/132/38 89/135/38 159/136/38
f 90/137/39 88/138/39 89/135/39 86/132/39 87/131/39
f 84/139/40 88/138/40 90/137/40 85/140/40
f 85/140/41 83/130/41 157/134/41 160/141/41 84/139/41
f 85/140/42 90/137/42 87/131/42 83/130/42
f 91/142/43 95/143/43 94/144/43 162/145/43 161/146/43
f 159/136/44 89/135/44 88/138/44 84/139/44 160/141/44
f 162/145/38 94/144/38 97/147/38 163/148/38
f 98/149/39 96/150/39 97/147/39 94/144/39 95/143/39
f 92/151/40 96/150/40 98/149/40 93/152/40
f 93/152/41 91/142/41 161/146/41 164/153/41 92/151/41
f 93/152/42 98/149/42 95/143/42 91/142/42
f 107/154/43 124/155/43 118/156/43 166/157/43 165/158/43
f 163/148/44 97/147/44 96/150/44 92/151/44 164/153/44
f 166/157/38 118/156/38 121/159/38 169/160/38
f 106/161/45 113/162/45 104/163/45 112/164/45 105/165/45 115/166/45 102/167/45 111/168/45 103/169/45 114/170/45
f 125/171/40 113/162/40 106/161/40 116/172/40
f 124/155/43 111/168/43 102/167/43 118/156/43
f 123/173/42 114/170/42 103/169/42 119/174/42
f 122/175/46 112/164/46 104/163/46 117/176/46
f 121/159/38 115/166/38 105/165/38 120/177/38
f 118/156/38 102/167/38 115/166/38 121/159/38
f 167/178/44 120/177/44 122/175/44 108/179/44 168/180/44
f 134/181/43 151/182/43 145/183/43 172/184/43 171/185/43
f 120/177/44 105/165/44 112/164/44 122/175/44
f 169/160/38 121/159/38 120/177/38 167/178/38
f 108/179/46 122/175/46 117/176/46 100/186/46
f 116/172/42 106/161/42 114/170/42 123/173/42
f 101/187/42 116/172/42 123/173/42 110/188/42
f 110/188/42 123/173/42 119/174/42 99/189/42
f 119/174/43 103/169/43 111/168/43 124/155/43
f 99/189/43 119/174/43 124/155/43 107/154/43
f 101/187/47 110/188/47 99/189/47 107/154/47 165/158/47 170/190/47 168/180/47 108/179/47 100/186/47 109/191/47
f 117/176/40 104/163/40 113/162/40 125/171/40
f 100/186/40 117/176/40 125/171/40 109/191/40
f 109/191/40 125/171/40 116/172/40 101/187/40
f 172/184/38 145/183/38 148/192/38 175/193/38
f 133/194/45 140/195/45 131/196/45 139/197/45 132/198/45 142/199/45 129/200/45 138/201/45 130/202/45 141/203/45
f 152/204/40 140/195/40 133/194/40 143/205/40
f 151/182/43 138/201/43 129/200/43 145/183/43
f 150/206/42 141/203/42 130/202/42 146/207/42
f 149/208/46 139/197/46 131/196/46 144/209/46
f 148/192/38 142/199/38 132/198/38 147/210/38
f 145/183/38 129/200/38 142/199/38 148/192/38
f 173/211/44 147/210/44 149/208/44 135/212/44 174/213/44
f 147/210/44 132/198/44 139/197/44 149/208/44
f 175/193/38 148/192/38 147/210/38 173/211/38
f 135/212/46 149/208/46 144/209/46 127/214/46
f 143/205/42 133/194/42 141/203/42 150/206/42
f 128/215/42 143/205/42 150/206/42 137/216/42
f 137/216/42 150/206/42 146/207/42 126/217/42
f 146/207/43 130/202/43 138/201/43 151/182/43
f 126/217/43 146/207/43 151/182/43 134/181/43
f 128/215/47 137/216/47 126/217/47 134/181/47 171/185/47 176/218/47 174/213/47 135/212/47 127/214/47 136/219/47
f 144/209/40 131/196/40 140/195/40 152/204/40
f 127/214/40 144/209/40 152/204/40 136/219/40
f 136/219/40 152/204/40 143/205/40 128/215/40
f 153/118/48 156/121/48 155/129/48 154/128/48
f 157/134/48 158/133/48 159/136/48 160/141/48
f 161/146/48 162/145/48 163/148/48 164/153/48
f 170/190/49 169/160/49 167/178/49 168/180/49
f 165/158/50 166/157/50 169/160/50 170/190/50
f 176/218/49 175/193/49 173/211/49 174/213/49
f 171/185/50 172/184/50 175/193/50 176/218/50
f 75/127/43 79/124/43 78/119/43 153/118/43 154/128/43
